<svg width="96" height="109" viewBox="0 0 96 109" fill="none" xmlns="http://www.w3.org/2000/svg">
<path d="M93.3547 67.4863C94.8747 65.7896 95.8008 63.55 95.8008 61.0996C95.8008 55.8178 91.5025 51.5195 86.2207 51.5195H67.6268C69.4683 45.9312 70.2539 38.5162 70.2539 35.3377V32.1465C70.2539 25.1041 64.5229 19.373 57.4805 19.373H54.2871C52.8224 19.373 51.5451 20.3694 51.1896 21.7915L49.4502 28.7509C47.0126 38.497 39.2741 49.2501 31.2651 51.2045C29.8622 47.6534 26.3984 45.1328 22.3535 45.1328H3.19336C1.43063 45.1328 0 46.5634 0 48.3262V105.807C0 107.569 1.43063 109 3.19336 109H22.3535C26.1621 109 29.4577 106.767 31.0011 103.539L41.9735 107.197C45.5607 108.393 49.2991 109 53.0821 109H79.834C85.1158 109 89.4141 104.702 89.4141 99.4199C89.4141 98.1745 89.1756 96.9823 88.7413 95.8902C92.8033 94.781 95.8008 91.0576 95.8008 86.6465C95.8008 84.1961 94.8747 81.9565 93.3547 80.2598C94.8747 78.563 95.8008 76.3234 95.8008 73.873C95.8008 71.4227 94.8747 69.1831 93.3547 67.4863ZM25.5469 99.4199C25.5469 101.181 24.1141 102.613 22.3535 102.613H6.38672V51.5195H22.3535C24.1141 51.5195 25.5469 52.9523 25.5469 54.7129V99.4199ZM79.834 70.6797H86.2207C87.9813 70.6797 89.4141 72.1124 89.4141 73.873C89.4141 75.6337 87.9813 77.0664 86.2207 77.0664H79.834C78.0713 77.0664 76.6406 78.497 76.6406 80.2598C76.6406 82.0225 78.0713 83.4531 79.834 83.4531H86.2207C87.9813 83.4531 89.4141 84.8859 89.4141 86.6465C89.4141 88.4071 87.9813 89.8398 86.2207 89.8398H79.834C78.0713 89.8398 76.6406 91.2705 76.6406 93.0332C76.6406 94.7959 78.0713 96.2266 79.834 96.2266C81.5946 96.2266 83.0273 97.6593 83.0273 99.4199C83.0273 101.181 81.5946 102.613 79.834 102.613H53.0821C49.9867 102.613 46.9275 102.117 43.9917 101.138L31.9336 97.1186V57.6039C36.9429 56.6523 41.8458 53.4803 46.2718 48.2879C50.5935 43.2168 54.0976 36.4937 55.6454 30.3007L56.7801 25.7598H57.4805C61.0017 25.7598 63.8672 28.6253 63.8672 32.1465V35.3377C63.8672 39.6253 62.526 47.8493 60.8101 51.5195H54.2871C52.5244 51.5195 51.0938 52.9502 51.0938 54.7129C51.0938 56.4756 52.5244 57.9062 54.2871 57.9062H86.2207C87.9813 57.9062 89.4141 59.339 89.4141 61.0996C89.4141 62.8602 87.9813 64.293 86.2207 64.293H79.834C78.0713 64.293 76.6406 65.7236 76.6406 67.4863C76.6406 69.2491 78.0713 70.6797 79.834 70.6797Z" fill="#38B349"/>
<path d="M15.9668 96.2266C17.7304 96.2266 19.1602 94.7968 19.1602 93.0332C19.1602 91.2696 17.7304 89.8398 15.9668 89.8398C14.2032 89.8398 12.7734 91.2696 12.7734 93.0332C12.7734 94.7968 14.2032 96.2266 15.9668 96.2266Z" fill="#0F3043"/>
<path d="M60.6738 0C58.9102 0 57.4805 1.42977 57.4805 3.19336V9.79297C57.4805 11.5566 58.9102 12.9863 60.6738 12.9863C62.4374 12.9863 63.8672 11.5566 63.8672 9.79297V3.19336C63.8672 1.42977 62.4374 0 60.6738 0Z" fill="#FFDA55"/>
<path d="M47.1256 14.0822L42.6096 9.56619C41.3627 8.31908 39.3407 8.31908 38.0935 9.56619C36.8464 10.8133 36.8464 12.8351 38.0935 14.0822L42.6096 18.5983C43.8565 19.8452 45.8787 19.8454 47.1256 18.5983C48.3727 17.3512 48.3727 15.3294 47.1256 14.0822Z" fill="#FFDA55"/>
<path d="M83.2545 9.56619C82.0076 8.31908 79.9856 8.31908 78.7385 9.56619L74.2224 14.082C72.9753 15.3291 72.9753 17.351 74.2224 18.5981C75.4693 19.8452 77.4914 19.8454 78.7385 18.5983L83.2545 14.0822C84.5017 12.8351 84.5017 10.8133 83.2545 9.56619Z" fill="#FFDA55"/>
</svg>
