<svg width="46" height="46" viewBox="0 0 46 46" fill="none" xmlns="http://www.w3.org/2000/svg">
<path d="M44.2631 19.0009L25.5001 19C24.6716 19 24 19.6715 24 20.5V26.4939C24 27.3223 24.6716 27.994 25.5 27.994H36.0662C34.9092 30.9966 32.7497 33.5113 29.9945 35.1091L34.4999 42.9083C41.7271 38.7285 45.9999 31.3946 45.9999 23.1849C45.9999 22.016 45.9138 21.1803 45.7414 20.2394C45.6104 19.5245 44.9898 19.0009 44.2631 19.0009Z" fill="#167EE6"/>
<path d="M23.0002 37.0001C17.8293 37.0001 13.3152 34.1748 10.8908 29.9941L3.0918 34.4894C7.06064 41.368 14.4956 46.0001 23.0002 46.0001C27.1722 46.0001 31.1089 44.8767 34.5001 42.9191V42.9084L29.9947 35.1091C27.9339 36.3044 25.5491 37.0001 23.0002 37.0001Z" fill="#12B347"/>
<path d="M34.5 42.9194V42.9087L29.9946 35.1094C27.9338 36.3046 25.5491 37.0003 23 37.0003V46.0003C27.1721 46.0003 31.1089 44.877 34.5 42.9194Z" fill="#0F993E"/>
<path d="M9 22.9991C9 20.4503 9.69557 18.0657 10.8906 16.005L3.09161 11.5098C1.12322 14.8903 0 18.8163 0 22.9991C0 27.1818 1.12322 31.1078 3.09161 34.4883L10.8906 29.9931C9.69557 27.9324 9 25.5478 9 22.9991Z" fill="#FFD500"/>
<path d="M23.0002 9C26.3721 9 29.4693 10.1981 31.8886 12.1911C32.4854 12.6828 33.3528 12.6473 33.8995 12.1006L38.1464 7.85368C38.7667 7.2334 38.7225 6.21808 38.0599 5.64326C34.0066 2.12687 28.7328 0 23.0002 0C14.4956 0 7.06064 4.63207 3.0918 11.5107L10.8908 16.0059C13.3152 11.8252 17.8293 9 23.0002 9Z" fill="#FF4B26"/>
<path d="M31.8884 12.1911C32.4852 12.6828 33.3528 12.6473 33.8994 12.1006L38.1463 7.85368C38.7665 7.2334 38.7223 6.21808 38.0598 5.64326C34.0065 2.12678 28.7327 0 23 0V9C26.3718 9 29.4692 10.1981 31.8884 12.1911Z" fill="#D93F21"/>
</svg>
