<svg width="134" height="68" viewBox="0 0 134 68" fill="none" xmlns="http://www.w3.org/2000/svg">
<path d="M9.79408 27H0C0 28.5268 1.23769 29.7645 2.76446 29.7645H5.92384L0 38.2948V40.8618H7.02962C8.55639 40.8618 9.79408 39.6241 9.79408 38.0973H3.83075L9.79408 29.567V27Z" fill="#111029"/>
<path d="M18.9414 35.2736C18.9414 39.1044 21.4492 41 24.6678 41C27.8667 41 30.5522 39.1044 30.5522 35.2736V27C28.6873 27 27.1756 28.5117 27.1756 30.3766V35.2934C27.1756 36.9323 26.3265 37.8801 24.7271 37.8801C23.1276 37.8801 22.318 36.9323 22.318 35.2934V30.3766C22.318 28.5118 20.8063 27 18.9414 27V35.2736Z" fill="#111029"/>
<path d="M39.9241 40.8618C41.789 40.8618 43.3007 39.35 43.3007 37.4852V32.5289L46.4206 40.8618H49.1456L52.2457 32.5487V37.4852C52.2457 39.35 53.7575 40.8618 55.6223 40.8618V27H51.6533L47.8028 36.5966L43.9128 27H39.9241V40.8618Z" fill="#111029"/>
<path d="M73.6804 38.4133C74.1762 39.8769 75.5496 40.8618 77.0949 40.8618H78.0838L73.0683 27H69.1585L64.143 40.8618H65.0924C66.6377 40.8618 68.0112 39.8769 68.5069 38.4133H73.6804ZM72.8116 35.8068H69.3955L71.0937 30.732L72.8116 35.8068Z" fill="#111029"/>
<path d="M93.937 31.5021C93.937 32.5882 93.3446 33.2398 92.0808 33.2398H89.9877V29.8039H92.0808C93.3446 29.8039 93.937 30.4753 93.937 31.5021ZM86.6111 27V40.8618H89.9877V35.6291H90.7973L91.8412 37.5238C92.9757 39.5829 95.1404 40.8618 97.4913 40.8618L94.2924 35.3724C96.425 34.7405 97.3728 33.1016 97.3728 31.3639C97.3728 28.9549 95.6746 27 92.2783 27H86.6111Z" fill="#111029"/>
<path d="M116.467 31.692C116.467 32.2573 116.334 32.7907 116.067 33.292C115.801 33.7933 115.374 34.204 114.787 34.524C114.201 34.8333 113.449 34.988 112.531 34.988H110.515V39.5H108.691V28.38H112.531C113.385 28.38 114.105 28.5293 114.691 28.828C115.289 29.116 115.731 29.5107 116.019 30.012C116.318 30.5133 116.467 31.0733 116.467 31.692ZM112.531 33.5C113.225 33.5 113.742 33.3453 114.083 33.036C114.425 32.716 114.595 32.268 114.595 31.692C114.595 30.476 113.907 29.868 112.531 29.868H110.515V33.5H112.531ZM120.031 31.964C120.298 31.516 120.65 31.1693 121.087 30.924C121.535 30.668 122.063 30.54 122.671 30.54V32.428H122.207C121.492 32.428 120.948 32.6093 120.575 32.972C120.212 33.3347 120.031 33.964 120.031 34.86V39.5H118.207V30.684H120.031V31.964ZM128.171 39.644C127.339 39.644 126.587 39.4573 125.915 39.084C125.243 38.7 124.715 38.1667 124.331 37.484C123.947 36.7907 123.755 35.9907 123.755 35.084C123.755 34.188 123.953 33.3933 124.347 32.7C124.742 32.0067 125.281 31.4733 125.963 31.1C126.646 30.7267 127.409 30.54 128.251 30.54C129.094 30.54 129.857 30.7267 130.539 31.1C131.222 31.4733 131.761 32.0067 132.155 32.7C132.55 33.3933 132.747 34.188 132.747 35.084C132.747 35.98 132.545 36.7747 132.139 37.468C131.734 38.1613 131.179 38.7 130.475 39.084C129.782 39.4573 129.014 39.644 128.171 39.644ZM128.171 38.06C128.641 38.06 129.078 37.948 129.483 37.724C129.899 37.5 130.235 37.164 130.491 36.716C130.747 36.268 130.875 35.724 130.875 35.084C130.875 34.444 130.753 33.9053 130.507 33.468C130.262 33.02 129.937 32.684 129.531 32.46C129.126 32.236 128.689 32.124 128.219 32.124C127.75 32.124 127.313 32.236 126.907 32.46C126.513 32.684 126.198 33.02 125.963 33.468C125.729 33.9053 125.611 34.444 125.611 35.084C125.611 36.0333 125.851 36.7693 126.331 37.292C126.822 37.804 127.435 38.06 128.171 38.06Z" fill="#1E2432"/>
</svg>
