<svg width="21" height="15" viewBox="0 0 21 15" fill="none" xmlns="http://www.w3.org/2000/svg">
<path fill-rule="evenodd" clip-rule="evenodd" d="M17.4 1H3C1.89543 1 1 1.89543 1 3V12C1 13.1046 1.89543 14 3 14H17.4C18.5046 14 19.4 13.1046 19.4 12V3C19.4 1.89543 18.5046 1 17.4 1ZM3 0C1.34315 0 0 1.34315 0 3V12C0 13.6569 1.34314 15 3 15H17.4C19.0569 15 20.4 13.6569 20.4 12V3C20.4 1.34315 19.0569 0 17.4 0H3ZM8.4 4.3C8.4 4.02386 8.62386 3.8 8.9 3.8L16.9 3.8C17.1761 3.8 17.4 4.02386 17.4 4.3C17.4 4.57614 17.1761 4.8 16.9 4.8L8.9 4.8C8.62386 4.8 8.4 4.57614 8.4 4.3ZM8.9 6.8C8.62386 6.8 8.4 7.02386 8.4 7.3C8.4 7.57614 8.62386 7.8 8.9 7.8L13.9 7.8C14.1761 7.8 14.4 7.57614 14.4 7.3C14.4 7.02386 14.1761 6.8 13.9 6.8L8.9 6.8ZM4.8 5C4.91046 5 5 4.91046 5 4.8C5 4.68954 4.91046 4.6 4.8 4.6C4.68954 4.6 4.6 4.68954 4.6 4.8C4.6 4.91046 4.68954 5 4.8 5ZM4.8 6C5.46274 6 6 5.46274 6 4.8C6 4.13726 5.46274 3.6 4.8 3.6C4.13726 3.6 3.6 4.13726 3.6 4.8C3.6 5.46274 4.13726 6 4.8 6ZM4.8 6.1C4.19 6.1 3.60499 6.34232 3.17365 6.77365C2.74232 7.20499 2.5 7.79 2.5 8.4H3.5C3.5 8.05522 3.63696 7.72456 3.88076 7.48076C4.12456 7.23696 4.45522 7.1 4.8 7.1C5.14478 7.1 5.47544 7.23696 5.71924 7.48076C5.96304 7.72456 6.1 8.05522 6.1 8.4H7.1C7.1 7.79 6.85768 7.20499 6.42635 6.77365C5.99501 6.34232 5.41 6.1 4.8 6.1Z" fill="black"/>
</svg>
